<svg width="64" height="49" viewBox="0 0 64 49" fill="none" xmlns="http://www.w3.org/2000/svg">
<path d="M52.5469 46.9346L51.7122 38.5784C55.1588 38.0335 57.8064 35.0492 57.8064 31.451V18.0319H53.6774V16.6055C53.6774 15.2023 52.9062 13.9423 51.6663 13.2961C52.8992 12.1636 53.6774 10.5442 53.6774 8.74179V6.67731C53.6774 3.26155 50.8997 0.483887 47.4839 0.483887C44.068 0.483887 41.2903 3.26155 41.2903 6.67731V8.74179C41.2903 11.4141 42.9945 13.6893 45.371 14.5562L39.8306 20.0964H34.0418C33.9264 18.3757 32.7445 16.8757 31.0701 16.3969L26.8387 15.1892V13.3455C28.1023 12.211 28.9032 10.5709 28.9032 8.74179V6.67731C28.9032 3.26155 26.1255 0.483887 22.7097 0.483887C19.2938 0.483887 16.5161 3.26155 16.5161 6.67731V8.74179C16.5161 10.5699 17.317 12.21 18.5806 13.3455V15.1902L14.3493 16.3979C12.5862 16.9004 11.3548 18.5334 11.3548 20.3681V24.2253H7.22581V30.4188H9.29032V46.9346H0V48.999H64V46.9346H52.5469ZM43.3548 30.4188V25.685L50.6694 18.3706C51.1981 17.8419 51.5126 17.1317 51.5832 16.3908C51.5922 16.4629 51.6129 16.5309 51.6129 16.6055V29.3865C51.6129 31.0937 50.2233 32.4832 48.5161 32.4832H40.2581V30.4188H43.3548ZM40.2581 38.6767H45.5176L46.3432 46.9346H40.2581V38.6767ZM47.5922 38.6767H49.6467L50.4723 46.9346H48.4178L47.5922 38.6767ZM53.6774 29.3865V20.0964H55.7419V31.451C55.7419 34.2967 53.4264 36.6122 50.5806 36.6122H40.2581V34.5477H48.5161C51.3619 34.5477 53.6774 32.2322 53.6774 29.3865ZM43.3548 8.74179V6.67731C43.3548 4.40014 45.2067 2.54836 47.4839 2.54836C49.7611 2.54836 51.6129 4.40014 51.6129 6.67731V8.74179C51.6129 11.019 49.7611 12.8707 47.4839 12.8707C45.2067 12.8707 43.3548 11.019 43.3548 8.74179ZM40.6855 22.1609L47.5726 15.2739C47.7883 15.0582 48.0867 14.9352 48.3911 14.9352C49.0292 14.9352 49.5484 15.4544 49.5484 16.0924C49.5484 16.3969 49.4254 16.6953 49.2097 16.911L41.8952 24.2253H30.9677C30.3982 24.2253 29.9355 23.7627 29.9355 23.1931C29.9355 22.6236 30.3982 22.1609 30.9677 22.1609H40.6855ZM18.5806 6.67731C18.5806 4.40014 20.4325 2.54836 22.7097 2.54836C24.9869 2.54836 26.8387 4.40014 26.8387 6.67731V8.74179C26.8387 11.019 24.9869 12.8707 22.7097 12.8707C20.4325 12.8707 18.5806 11.019 18.5806 8.74179V6.67731ZM22.7097 14.9352C23.4345 14.9352 24.127 14.8032 24.7742 14.5738V15.6827C24.5181 16.0778 23.807 16.9997 22.7097 16.9997C21.6124 16.9997 20.9012 16.0778 20.6452 15.6827V14.5738C21.2923 14.8032 21.9849 14.9352 22.7097 14.9352ZM13.4194 20.3681C13.4194 19.4502 14.0358 18.6347 14.9163 18.3827L19.1688 17.168C19.7676 17.9483 20.933 19.0642 22.7097 19.0642C24.4864 19.0642 25.6517 17.9483 26.2505 17.167L30.503 18.3817C31.2938 18.608 31.8453 19.2955 31.9556 20.0954H30.9677C29.2606 20.0954 27.871 21.485 27.871 23.1921C27.871 23.5555 27.9451 23.9002 28.061 24.2243H13.4194V20.3681ZM9.29032 26.2898H41.2903V28.3543H9.29032V26.2898ZM11.3548 34.5477H14.4516V32.4832H11.3548V30.4188H38.1935V32.4832H16.5161V34.5477H38.1935V46.9346H35.7349L33.6704 42.8056H15.878L13.8135 46.9346H11.3548V34.5477ZM33.4264 46.9346H16.122L17.1542 44.8701H32.3942L33.4264 46.9346Z" fill="url(#paint0_linear_6_293)"/>
<defs>
<linearGradient id="paint0_linear_6_293" x1="32" y1="0.483887" x2="32" y2="48.999" gradientUnits="userSpaceOnUse">
<stop offset="0.760417" stop-color="#2351DC"/>
<stop offset="1" stop-color="#2351DC" stop-opacity="0"/>
</linearGradient>
</defs>
</svg>
