<svg width="64" height="58" viewBox="0 0 64 58" fill="none" xmlns="http://www.w3.org/2000/svg">
<path d="M58.375 45.9241C55.9306 45.9241 53.8465 47.4917 53.0725 49.6741H37.3025C36.7366 48.0786 35.4705 46.8124 33.875 46.2466V42.3822H53.5794C56.681 42.3822 59.2044 39.8589 59.2044 36.7572V29.1043C59.2044 26.4051 57.293 24.1447 54.7529 23.6033V19.6047C57.293 19.0633 59.2044 16.8029 59.2044 14.1037V6.45081C59.2044 3.34918 56.681 0.825806 53.5794 0.825806H10.4206C7.319 0.825806 4.79563 3.34918 4.79563 6.45081V14.1037C4.79563 16.8029 6.707 19.0633 9.24712 19.6047V23.6033C6.707 24.1447 4.79563 26.4051 4.79563 29.1043V36.7572C4.79563 39.8589 7.319 42.3822 10.4206 42.3822H30.125V46.2466C28.5295 46.8124 27.2634 48.0786 26.6975 49.6741H10.9275C10.1535 47.4917 8.06938 45.9241 5.625 45.9241C2.52338 45.9241 0 48.4473 0 51.5491C0 54.6507 2.52338 57.1741 5.625 57.1741C8.06938 57.1741 10.1535 55.6064 10.9275 53.4241H26.6975C27.4715 55.6064 29.5556 57.1741 32 57.1741C34.4444 57.1741 36.5285 55.6064 37.3025 53.4241H53.0725C53.8465 55.6064 55.9306 57.1741 58.375 57.1741C61.4767 57.1741 64 54.6507 64 51.5491C64 48.4473 61.4767 45.9241 58.375 45.9241V45.9241ZM51.0028 19.7287V23.4793H12.9972V19.7287H51.0028ZM8.54562 14.1037V6.45081C8.54562 5.41693 9.38675 4.57581 10.4206 4.57581H53.5794C54.6134 4.57581 55.4544 5.41693 55.4544 6.45081V14.1037C55.4544 15.1376 54.6134 15.9787 53.5794 15.9787H10.4206C9.38675 15.9787 8.54562 15.1377 8.54562 14.1037ZM8.54562 36.7572V29.1043C8.54562 28.0704 9.38675 27.2293 10.4206 27.2293H53.5794C54.6134 27.2293 55.4544 28.0704 55.4544 29.1043V36.7572C55.4544 37.7912 54.6134 38.6322 53.5794 38.6322H10.4206C9.38675 38.6322 8.54562 37.7911 8.54562 36.7572ZM5.625 53.4241C4.59113 53.4241 3.75 52.5829 3.75 51.5491C3.75 50.5151 4.59113 49.6741 5.625 49.6741C6.65887 49.6741 7.5 50.5151 7.5 51.5491C7.5 52.5829 6.65887 53.4241 5.625 53.4241ZM32 53.4241C30.9661 53.4241 30.125 52.5829 30.125 51.5491C30.125 50.5151 30.9661 49.6741 32 49.6741C33.034 49.6741 33.875 50.5151 33.875 51.5491C33.875 52.5829 33.034 53.4241 32 53.4241ZM58.375 53.4241C57.341 53.4241 56.5 52.5829 56.5 51.5491C56.5 50.5151 57.341 49.6741 58.375 49.6741C59.409 49.6741 60.25 50.5151 60.25 51.5491C60.25 52.5829 59.409 53.4241 58.375 53.4241Z" fill="url(#paint0_linear_6_342)"/>
<defs>
<linearGradient id="paint0_linear_6_342" x1="32" y1="0.825806" x2="32" y2="57.1741" gradientUnits="userSpaceOnUse">
<stop offset="0.8125" stop-color="#2351DC"/>
<stop offset="1" stop-color="#2351DC" stop-opacity="0"/>
</linearGradient>
</defs>
</svg>
