<svg width="59" height="54" viewBox="0 0 59 54" fill="none" xmlns="http://www.w3.org/2000/svg">
<path d="M54.6364 0.818115H5.18189C2.70914 0.818115 0.818268 2.70899 0.818268 5.18174V19.7272C0.818268 20.6 1.40014 21.1817 2.27277 21.1817C3.14539 21.1817 3.72727 20.5999 3.72727 19.7272V5.18187C3.72727 4.30912 4.30914 3.72737 5.18177 3.72737H54.6363C55.509 3.72737 56.0908 4.30924 56.0908 5.18187V40.091C56.0908 40.9637 55.5089 41.5455 54.6363 41.5455H19.7273C18.8545 41.5455 18.2728 42.1274 18.2728 43C18.2728 43.8726 18.8546 44.4545 19.7273 44.4545H22.6364V48.8181C22.6364 49.6909 22.0545 50.2726 21.1819 50.2726H19.7274C18.8546 50.2726 18.2729 50.8545 18.2729 51.7271C18.2729 52.5997 18.8548 53.1816 19.7274 53.1816H40.091C40.9638 53.1816 41.5455 52.5997 41.5455 51.7271C41.5455 50.8545 40.9636 50.2726 40.091 50.2726H38.6365C37.7638 50.2726 37.182 49.6907 37.182 48.8181V44.4545H54.6365C57.1093 44.4545 59.0001 42.5636 59.0001 40.0909V5.18187C59 2.70912 57.1092 0.818115 54.6364 0.818115ZM25.2545 50.2727C25.4 49.8364 25.5454 49.4 25.5454 48.8182V44.4546H34.2726V48.8182C34.2726 49.4001 34.4181 49.8364 34.5635 50.2727H25.2545Z" fill="#2351DC"/>
</svg>
