<svg width="62" height="62" viewBox="0 0 62 62" fill="none" xmlns="http://www.w3.org/2000/svg">
<path d="M58.5 7H48V1C48 0.734784 47.8946 0.48043 47.7071 0.292893C47.5196 0.105357 47.2652 0 47 0H15C14.7348 0 14.4804 0.105357 14.2929 0.292893C14.1054 0.48043 14 0.734784 14 1V7H3.5C2.57206 7.00103 1.68241 7.3701 1.02626 8.02626C0.370104 8.68241 0.00102566 9.57206 0 10.5V48.5C0.00102566 49.4279 0.370104 50.3176 1.02626 50.9737C1.68241 51.6299 2.57206 51.999 3.5 52H22.6737L21.2463 57H17C16.7348 57 16.4804 57.1054 16.2929 57.2929C16.1054 57.4804 16 57.7348 16 58V61C16 61.2652 16.1054 61.5196 16.2929 61.7071C16.4804 61.8946 16.7348 62 17 62H45C45.2652 62 45.5196 61.8946 45.7071 61.7071C45.8946 61.5196 46 61.2652 46 61V58C46 57.7348 45.8946 57.4804 45.7071 57.2929C45.5196 57.1054 45.2652 57 45 57H40.7537L39.3262 52H58.5C59.4279 51.999 60.3176 51.6299 60.9737 50.9737C61.6299 50.3176 61.999 49.4279 62 48.5V10.5C61.999 9.57206 61.6299 8.68241 60.9737 8.02626C60.3176 7.3701 59.4279 7.00103 58.5 7ZM25 2H37V5.5C37 5.63261 36.9473 5.75979 36.8536 5.85355C36.7598 5.94732 36.6326 6 36.5 6H25.5C25.3674 6 25.2402 5.94732 25.1464 5.85355C25.0527 5.75979 25 5.63261 25 5.5V2ZM25.5 8H36.5C37.1628 7.99934 37.7983 7.73573 38.267 7.26704C38.7357 6.79834 38.9993 6.16284 39 5.5V5H43V37H19V5H23V5.5C23.0007 6.16284 23.2643 6.79834 23.733 7.26704C24.2017 7.73573 24.8372 7.99934 25.5 8V8ZM16 2H23V3H18C17.7348 3 17.4804 3.10536 17.2929 3.29289C17.1054 3.48043 17 3.73478 17 4V38C17 38.2652 17.1054 38.5196 17.2929 38.7071C17.4804 38.8946 17.7348 39 18 39H44C44.2652 39 44.5196 38.8946 44.7071 38.7071C44.8946 38.5196 45 38.2652 45 38V4C45 3.73478 44.8946 3.48043 44.7071 3.29289C44.5196 3.10536 44.2652 3 44 3H39V2H46V40H16V2ZM44 59V60H18V59H44ZM23.3263 57L24.7537 52H37.2463L38.6738 57H23.3263ZM60 48.5C59.9997 48.8977 59.8415 49.2791 59.5603 49.5603C59.2791 49.8415 58.8977 49.9997 58.5 50H3.5C3.10228 49.9997 2.72094 49.8415 2.43971 49.5603C2.15847 49.2791 2.00033 48.8977 2 48.5V46H60V48.5ZM60 44H2V10.5C2.00033 10.1023 2.15847 9.72094 2.43971 9.43971C2.72094 9.15847 3.10228 9.00033 3.5 9H14V41C14 41.2652 14.1054 41.5196 14.2929 41.7071C14.4804 41.8946 14.7348 42 15 42H47C47.2652 42 47.5196 41.8946 47.7071 41.7071C47.8946 41.5196 48 41.2652 48 41V9H58.5C58.8977 9.00033 59.2791 9.15847 59.5603 9.43971C59.8415 9.72094 59.9997 10.1023 60 10.5V44Z" fill="url(#paint0_linear_6_320)"/>
<defs>
<linearGradient id="paint0_linear_6_320" x1="31" y1="0" x2="31" y2="62" gradientUnits="userSpaceOnUse">
<stop offset="0.875" stop-color="#2351DC"/>
<stop offset="1" stop-color="#2351DC" stop-opacity="0"/>
</linearGradient>
</defs>
</svg>
