<svg width="60" height="39" viewBox="0 0 60 39" fill="none" xmlns="http://www.w3.org/2000/svg">
<path d="M46.3939 38.6151H10.208C4.67445 38.6151 0 33.7847 0 28.0675C0 23.5871 2.87026 19.7054 7.07432 18.3594C7.72709 8.56093 15.7459 0.997803 25.6653 0.997803C28.9672 0.997803 32.2109 1.87288 35.0467 3.52847C35.5589 3.82753 35.7308 4.4846 35.4324 4.99614C35.1352 5.50768 34.4775 5.68147 33.9653 5.38179C31.4574 3.9178 28.5877 3.14405 25.6653 3.14405C16.651 3.14405 9.41154 10.203 9.18371 19.2129C9.17143 19.7005 8.83184 20.1187 8.35592 20.2305C4.70086 21.0896 2.14624 24.3123 2.14624 28.0675C2.14624 32.6216 5.83877 36.4689 10.208 36.4689H46.3939C52.0963 36.4689 56.9145 31.496 56.9145 25.6087C56.9145 22.0476 55.1336 18.7554 52.1497 16.802C51.6542 16.4772 51.516 15.8115 51.8396 15.3159C52.1657 14.821 52.8289 14.6822 53.3257 15.0058C56.9163 17.3578 59.0607 21.3211 59.0607 25.6093C59.0607 32.659 53.2594 38.6151 46.3939 38.6151V38.6151Z" fill="url(#paint0_linear_9_6)"/>
<defs>
<linearGradient id="paint0_linear_9_6" x1="29.5304" y1="0.997803" x2="29.5304" y2="38.6151" gradientUnits="userSpaceOnUse">
<stop offset="0.953125" stop-color="#2351DC"/>
<stop offset="1" stop-color="#2351DC" stop-opacity="0"/>
</linearGradient>
</defs>
</svg>
