<svg width="64" height="64" viewBox="0 0 64 64" fill="none" xmlns="http://www.w3.org/2000/svg">
<path d="M44.4269 64.0047C45.8728 64.0008 47.1381 63.0323 47.5193 61.6377L50.4681 50.6282L61.6358 47.6428C63.3374 47.18 64.3449 45.4296 63.8915 43.7259L58.1012 22.1449L58.5595 20.4388C58.974 18.8675 58.1441 17.2352 56.6304 16.6435L54.0233 6.91103C53.5566 5.21084 51.8105 4.20186 50.1045 4.64607L31.0593 9.75492L15.0893 5.47346C14.4347 5.29383 13.7396 5.33141 13.1085 5.58036L9.11891 1.59764C7.77409 0.240615 5.8064 -0.293408 3.96026 0.198147C2.11412 0.689702 0.672161 2.13118 0.180118 3.97732C-0.311926 5.82346 0.221121 7.79163 1.57766 9.13645L8.84946 16.4083L0.137162 48.9319C-0.31876 50.6375 0.689734 52.3904 2.39334 52.8541L43.5966 63.8939C43.867 63.9676 44.1463 64.0052 44.4269 64.0047V64.0047ZM61.8281 44.2771C61.9789 44.8428 61.6455 45.4247 61.0813 45.5804L51.1066 48.2461L56.9941 26.2677L61.8281 44.2771ZM50.6502 6.70845C50.925 6.63328 51.2184 6.67135 51.4649 6.81389C51.7114 6.95594 51.8906 7.19122 51.9628 7.46653L54.2375 15.9636L35.1787 10.8576L50.6502 6.70845ZM32.3089 32.3328L26.9252 30.5384L30.5145 26.9457L32.3089 32.3289V32.3328ZM27.9689 26.481L18.9207 17.4319C18.5043 17.0155 17.8288 17.0155 17.4124 17.4324C16.996 17.8487 16.9965 18.5243 17.4134 18.9407L26.462 27.9874L24.9546 29.4967L9.87308 14.4152L11.3809 12.9073L14.3962 15.924C14.6661 16.1935 15.0586 16.2989 15.4271 16.1998C15.7952 16.1012 16.0827 15.8137 16.1813 15.4456C16.2799 15.0776 16.175 14.6846 15.9055 14.4152L12.8898 11.3995L14.3976 9.89063L29.4767 24.9722L27.9689 26.481ZM6.85639 11.3995L11.3809 6.87491L12.8888 8.38277L8.36522 12.9073L6.85639 11.3995ZM2.14927 5.36705C2.14927 4.07299 2.92883 2.90585 4.12428 2.41088C5.32022 1.91591 6.69628 2.18975 7.61105 3.10501L9.87308 5.36705L5.34853 9.8916L3.08552 7.62859C2.48413 7.03013 2.14683 6.21592 2.14927 5.36705ZM2.19857 49.4918L10.5926 18.1514L24.1995 31.7583C24.3108 31.8671 24.4445 31.9496 24.5919 32.0004C24.6002 32.0004 24.6066 32.0121 24.6163 32.015L31.6406 34.361C31.8598 34.4333 32.0897 34.4689 32.3206 34.4679C32.7224 34.4664 33.1153 34.3508 33.4531 34.134L45.7161 37.427C45.8064 37.4519 45.8997 37.4646 45.9934 37.4641C46.5289 37.4641 46.9809 37.0673 47.0502 36.5366C47.12 36.006 46.7856 35.5062 46.2687 35.368L34.4323 32.1903C34.4216 32.0092 34.3889 31.83 34.3342 31.6567L31.9882 24.6319C31.9882 24.6222 31.9765 24.6158 31.9721 24.6061C31.9213 24.4601 31.8388 24.3268 31.7309 24.216L15.2494 7.72768L55.74 18.5736C56.0139 18.6469 56.2472 18.8255 56.3888 19.071C56.5303 19.3161 56.5684 19.6075 56.4952 19.8814L45.4603 61.0798C45.3876 61.3536 45.2085 61.5874 44.9629 61.729C44.7174 61.8705 44.4255 61.9086 44.1521 61.8349L2.95323 50.7991C2.67987 50.7259 2.44654 50.5472 2.3045 50.3022C2.16294 50.0566 2.12486 49.7652 2.19857 49.4918Z" fill="#2351DC"/>
</svg>
